<svg id="icon" style="touch-action: none;" clip-rule="evenodd" fill-rule="evenodd" stroke-linejoin="round" stroke-miterlimit="2" viewBox="0 0 500 500" xmlns="http://www.w3.org/2000/svg"><path d="m15.3 8.1h-.1v-.2c0-4.4-3.3-7.9-7.2-7.9s-7.2 3.5-7.2 7.8v.2h-.2c-.6.2-.8 1.1-.5 2.1s1 1.6 1.6 1.5c.2.4.4.8.7 1.1.5 2.9 2.8 5.8 5.6 5.8s5.1-3 5.6-5.8c.3-.3.5-.7.7-1.1.6.1 1.2-.5 1.5-1.5.3-.9.1-1.9-.5-2zm-4.9 5.8c0 1.3-1 0-2.3 0s-2.3 1.3-2.3 0 1-2.3 2.3-2.3 2.3 1 2.3 2.3zm.562-6.328-1.335-1.336-.495.495 1.335 1.336-1.359 1.359.495.495 1.359-1.359 1.352 1.351.495-.495-1.352-1.351 1.328-1.328-.495-.495zm-6 0-1.335-1.335-.495.494 1.335 1.336-1.359 1.358.495.495 1.359-1.358 1.352 1.351.495-.495-1.352-1.351 1.328-1.328-.495-.495z" fill="#fff" transform="matrix(26.3158 0 0 26.3158 39.4736 8.9999)"/></svg>