<svg id="icon" style="touch-action: none;" clip-rule="evenodd" fill-rule="evenodd" stroke-linejoin="round" stroke-miterlimit="2" viewBox="0 0 500 500" xmlns="http://www.w3.org/2000/svg"><g transform="matrix(25 0 0 25 0 12.5)"><path d="m9.55 3.05c-4.187-.012-7.98 2.538-9.55 6.42 1.586 3.873 5.375 6.417 9.56 6.417s7.974-2.544 9.56-6.417c-1.577-3.885-5.377-6.434-9.57-6.42zm0 11.3c-3.329.016-6.385-1.886-7.84-4.88 1.472-2.98 4.521-4.875 7.845-4.875s6.373 1.895 7.845 4.875c-1.464 2.991-4.52 4.89-7.85 4.88z" fill="#aac8f0" fill-rule="nonzero"/><path d="m18.17.71-17 17.08" fill="none"/><g fill="#aac8f0"><path d="m17.461.005-17 17.08 1.418 1.41 17-17.08z"/><path d="m8 10.56c-.031.057-.068.11-.11.16-.139.168-.301.316-.48.44-.074.06-.154.11-.24.15.63.589 1.46.917 2.322.917 1.866 0 3.4-1.535 3.4-3.4 0-.647-.184-1.281-.532-1.827-1.36 1.3-3.02 2.25-4.36 3.56z" fill-rule="nonzero"/></g></g></svg>