<?xml version="1.0" encoding="UTF-8" standalone="no"?>
<!DOCTYPE svg PUBLIC "-//W3C//DTD SVG 1.1//EN" "http://www.w3.org/Graphics/SVG/1.1/DTD/svg11.dtd">
<svg width="100%" height="100%" viewBox="0 0 500 500" version="1.1" xmlns="http://www.w3.org/2000/svg" xmlns:xlink="http://www.w3.org/1999/xlink" xml:space="preserve" xmlns:serif="http://www.serif.com/" style="fill-rule:evenodd;clip-rule:evenodd;stroke-linejoin:round;stroke-miterlimit:2;">
    <g transform="matrix(25,0,0,25,250,250)">
        <g transform="matrix(1,0,0,1,-10,-9.5)">
            <g id="Layer_2">
                <g id="Layer_1-2">
                    <path d="M9.55,3.05C5.363,3.038 1.57,5.588 0,9.47C1.586,13.343 5.375,15.887 9.56,15.887C13.745,15.887 17.534,13.343 19.12,9.47C17.543,5.585 13.743,3.036 9.55,3.05ZM9.55,14.35C6.221,14.366 3.165,12.464 1.71,9.47C3.182,6.49 6.231,4.595 9.555,4.595C12.879,4.595 15.928,6.49 17.4,9.47C15.936,12.461 12.88,14.36 9.55,14.35Z" style="fill:rgb(170,200,240);fill-rule:nonzero;"/>
                    <path d="M18.17,0.71L1.17,17.79" style="fill:none;fill-rule:nonzero;"/>
                    <path d="M17.461,0.005L0.461,17.085L1.879,18.495L18.879,1.415L17.461,0.005Z" style="fill:rgb(170,200,240);"/>
                    <path d="M8,10.56C7.969,10.617 7.932,10.67 7.89,10.72C7.751,10.888 7.589,11.036 7.41,11.16C7.336,11.22 7.256,11.27 7.17,11.31C7.8,11.899 8.63,12.227 9.492,12.227C11.358,12.227 12.892,10.692 12.892,8.827C12.892,8.18 12.708,7.546 12.36,7C11,8.3 9.34,9.25 8,10.56Z" style="fill:rgb(170,200,240);fill-rule:nonzero;"/>
                </g>
            </g>
        </g>
    </g>
</svg>
