<svg id="icon" style="touch-action: none;" clip-rule="evenodd" fill-rule="evenodd" stroke-linejoin="round" stroke-miterlimit="2" viewBox="0 0 500 500" xmlns="http://www.w3.org/2000/svg" xmlns:xlink="http://www.w3.org/1999/xlink"><clipPath id="a"><path clip-rule="evenodd" d="m0 0h17v23h-17z"/></clipPath><g clip-path="url(#a)" transform="matrix(21.7391 0 0 21.7391 65.21765 .00035)"><path d="m12.193 5.425-.053.103.007.005c.086-.208.205-.388.348-.53.455-.451 1.221-.644 1.884-.358.664-.286 1.429-.093 1.884.358.529.524.719 1.563.195 2.611-.263.548-.879 1.12-1.439 1.505.374.946.581 1.988.581 3.081v.2h.1c.6.2.8 1.1.5 2.1s-.9 1.6-1.5 1.5c-.2.4-.4.8-.7 1.1-.5 2.8-2.8 5.8-5.6 5.8s-5.1-2.9-5.6-5.8c-.3-.3-.5-.7-.7-1.1-.6.1-1.3-.5-1.6-1.5s-.1-1.9.5-2.1h.2v-.2c0-1.085.204-2.119.572-3.058-.568-.386-1.203-.969-1.472-1.528-.523-1.048-.334-2.087.195-2.611.455-.451 1.221-.644 1.884-.358.664-.286 1.429-.093 1.884.358.149.147.271.335.357.552l.073-.048.005-.031-.027-.055.013.025-.009-.018c-.958-1.832-.76-3.657.205-4.573.859-.815 2.396-1.042 3.553-.195 1.157-.847 2.695-.62 3.553.195.965.915 1.163 2.739.207 4.57zm-.993 9.675h-1.7c0 .6-.1 1-.2 1.2s-.4.3-.8.3-.7-.1-.9-.4-.3-.7-.3-1.3v-2.6c0-.6.1-1 .3-1.3s.5-.4.9-.4.8.2.9.4.2.6.2 1.2h1.6c0-1-.2-1.7-.7-2.2s-1.2-.7-2.1-.7c-.8 0-1.5.3-2 .8s-.8 1.3-.8 2.3v2.5c0 1 .2 1.8.8 2.3s1.4.8 2.2.8 1.4-.2 1.9-.7.7-1.2.7-2.2zm-8.821-9.144c.295-.535.886-.535 1.181-.242.295.292.295.877 0 1.461-.207.439-.738.877-1.181 1.17-.442-.293-.974-.731-1.18-1.17-.295-.584-.295-1.169 0-1.461.295-.293.885-.293 1.18.242zm12 0c.295-.535.886-.535 1.181-.242.295.292.295.877 0 1.461-.207.439-.738.877-1.181 1.17-.442-.293-.974-.731-1.18-1.17-.295-.584-.295-1.169 0-1.461.295-.293.885-.293 1.18.242zm-5.946-3.812c.716-1.244 2.149-1.244 2.865-.564s.716 2.04 0 3.4c-.502 1.02-1.791 2.04-2.865 2.72-1.074-.68-2.363-1.7-2.865-2.72-.716-1.36-.716-2.72 0-3.4.717-.68 2.149-.68 2.865.564zm3.75 3.302.012-.025z" fill="#ffafe7"/></g></svg>