<svg id="icon" style="touch-action: none;" clip-rule="evenodd" fill-rule="evenodd" stroke-linejoin="round" stroke-miterlimit="2" viewBox="0 0 500 500" xmlns="http://www.w3.org/2000/svg"><path d="m12.899 6.017 6.017-6.017 1.414 1.414-18.84 18.84-1.414-1.414 11.336-11.336c-.408-.351-.751-.512-1.067-.501-.275.009-.486.171-.653.334-.354.344-.537.763-.537.763l-1.93-.828s.337-.794 1.003-1.441c.513-.498 1.203-.899 2.046-.927.729-.025 1.623.223 2.625 1.113zm3.564 1.364.001.032c0 1.934-.024 3.338-1.927 5.875-1.546 2.062-1.624 5.906-5.423 5.906-1.35 0-2.356-.521-3.105-1.359l1.473-1.473c.388.449.908.732 1.632.732 1.237 0 1.567-1.019 1.946-1.933.535-1.292 1.085-2.183 1.797-3.133.668-.89 1.04-1.617 1.245-2.286zm-12.58-1.137c.421-3.054 3.037-5.194 6.239-5.194 1.571 0 3.01.575 4.117 1.527l-1.491 1.491c-.721-.575-1.634-.918-2.626-.918-2.312 0-4.2 1.649-4.2 3.969l-.001.359z" fill="#aebdf0" transform="matrix(23.8095 0 0 23.8095 .00025 .00025)"/></svg>