<?xml version="1.0" encoding="UTF-8" standalone="no"?>
<!DOCTYPE svg PUBLIC "-//W3C//DTD SVG 1.1//EN" "http://www.w3.org/Graphics/SVG/1.1/DTD/svg11.dtd">
<svg width="100%" height="100%" viewBox="0 0 500 500" version="1.1" xmlns="http://www.w3.org/2000/svg" xmlns:xlink="http://www.w3.org/1999/xlink" xml:space="preserve" xmlns:serif="http://www.serif.com/" style="fill-rule:evenodd;clip-rule:evenodd;stroke-linejoin:round;stroke-miterlimit:2;">
    <g transform="matrix(26.3158,0,0,26.3158,250,258)">
        <g transform="matrix(1,0,0,1,-9.5,-6.5)">
            <clipPath id="_clip1">
                <rect x="0" y="0" width="19" height="13"/>
            </clipPath>
            <g clip-path="url(#_clip1)">
                <g id="Layer_2">
                    <g id="Layer_1-2">
                        <path d="M1.65,0C1.206,-0.017 0.774,0.146 0.45,0.45C-0.36,1.26 -0.06,2.89 1.13,4.08C2.32,5.27 4,5.58 4.77,4.77C4.866,4.653 4.944,4.521 5,4.38C4.722,7.316 3.464,10.075 1.43,12.21L4.12,12.21C5.67,10.7 6.64,7.72 7.25,5.76C8.849,5.906 10.345,6.615 11.47,7.76L7.62,12.26L18.82,12.26L17.67,10.18L12.47,10.18C16.62,7 14,3.55 10.55,2.05C10.55,2.05 9.582,1.636 9.08,1.51C7.624,1.044 6.043,1.159 4.67,1.83C4.5,1.566 4.302,1.321 4.08,1.1C3.442,0.435 2.571,0.041 1.65,0Z" style="fill:rgb(255,41,41);fill-rule:nonzero;"/>
                    </g>
                    <g transform="matrix(1,0,0,1,15.2047,4.03887)">
                        <text x="0px" y="0px" style="font-family:'HiraginoSans-W8', 'Hiragino Sans', sans-serif;font-weight:800;font-size:5px;fill:rgb(255,41,41);">5</text>
                    </g>
                </g>
            </g>
        </g>
    </g>
</svg>
