<svg id="icon" style="touch-action: none;" clip-rule="evenodd" fill-rule="evenodd" stroke-linejoin="round" stroke-miterlimit="2" viewBox="0 0 500 500" xmlns="http://www.w3.org/2000/svg"><path d="m.803 8.044c-.002-.082-.003-.163-.003-.244 0-4.305 3.226-7.8 7.2-7.8s7.2 3.495 7.2 7.8c0 .09-.001.179-.004.267.043.004.086.013.129.026.581.176.805 1.134.5 2.137-.304 1.004-1.023 1.675-1.604 1.499h-.001c-.178.329-.377.644-.597.94-.442 2.869-2.751 5.931-5.623 5.931s-5.181-3.062-5.623-5.931c-.225-.303-.429-.626-.61-.964l-.004.001c-.581.177-1.3-.495-1.604-1.498-.305-1.004-.08-1.962.5-2.138.048-.014.096-.023.144-.026zm9.497 6.456c0 1.3-1 0-2.3 0s-2.3 1.3-2.3 0 1-2.3 2.3-2.3 2.3 1 2.3 2.3zm-3.9-5.6c0 .9-.7 1-1.5 1s-1.5-.1-1.5-1 .6-1.5 1.5-1.5 1.5.7 1.5 1.5zm6 0c0 .9-.7 1-1.5 1-.9 0-1.5-.1-1.5-1s.7-1.5 1.5-1.5c.9 0 1.5.7 1.5 1.5z" fill="#ffe6bd" transform="matrix(26.3158 0 0 26.3158 39.4736 4.9999)"/></svg>