<?xml version="1.0" encoding="UTF-8" standalone="no"?>
<!DOCTYPE svg PUBLIC "-//W3C//DTD SVG 1.1//EN" "http://www.w3.org/Graphics/SVG/1.1/DTD/svg11.dtd">
<svg width="100%" height="100%" viewBox="0 0 500 500" version="1.1" xmlns="http://www.w3.org/2000/svg" xmlns:xlink="http://www.w3.org/1999/xlink" xml:space="preserve" xmlns:serif="http://www.serif.com/" style="fill-rule:evenodd;clip-rule:evenodd;stroke-miterlimit:10;">
    <g transform="matrix(22.7273,0,0,22.7273,250,250)">
        <g transform="matrix(1,0,0,1,-11,-10)">
            <clipPath id="_clip1">
                <rect x="0" y="0" width="22" height="20"/>
            </clipPath>
            <g clip-path="url(#_clip1)">
                <g>
                    <path d="M9.664,10.078C9.664,10.078 9.231,8.307 9.539,7.718C9.8,7.219 11.675,7.359 11.4,6.9C10.8,5.9 9.1,4.3 9.1,3.9C9.1,3.5 8.6,0.3 8.1,0C7.6,-0.3 7.2,1.4 7.6,2.8C8,4.2 6.6,2.9 6.4,2.6C6.2,2.2 4.6,0 4.1,0.4C3.6,0.8 4.1,1.5 4.5,2C4.9,2.5 6.1,4 5.8,4.2C5.6,4.4 1.8,1.1 1.3,1.5C0.8,1.9 0.8,2.5 1.4,2.9C2,3.3 5.3,5.1 5.3,5.5C5.3,5.9 4.3,5.8 3,5.4C1.7,4.9 0,5 0,5.5C0,6 5.4,7.7 6.1,8.2C6.9,8.6 6.4,9.2 5.9,9.3C5.5,9.5 4,10.6 3.7,11.3C3.4,12 4,12.4 4.4,12C4.7,11.6 6.8,10.4 7.4,10.6C8,10.9 8.464,11.078 9.664,10.078Z" style="fill:rgb(226,186,147);fill-rule:nonzero;"/>
                    <path d="M17.496,11.473L21.6,13.7L18.5,17.3L14.844,13.895C16.365,13.17 17.272,12.405 17.496,11.473Z" style="fill:rgb(226,186,147);fill-rule:nonzero;"/>
                    <path d="M10.6,19.1C9.4,18.2 8.1,17.3 6.9,16.3C7,16.2 9.4,13 9.8,12.3C9.8,12.2 9.475,9.602 9.4,8.4C9.387,6.673 11.5,7.2 11.6,7.2C11.8,7.2 12.275,7.417 12.275,7.517C12.175,7.717 11.6,8.5 11.7,8.4C12,8 12.3,7.5 12.6,7.1C13.1,6.5 14.053,6.57 14.353,7.27C15.398,6.576 16.231,7.532 16.119,8.343C16.981,8.185 17.367,9.135 17,10C17.237,9.82 18.126,11.068 17.519,11.814C17.016,12.647 14.656,14.231 13.7,14.3C13.1,15.2 10.6,19.1 10.6,19.1Z" style="fill:none;fill-rule:nonzero;stroke:rgb(226,186,147);stroke-width:0.75px;"/>
                </g>
            </g>
        </g>
    </g>
</svg>
