<svg id="icon" style="touch-action: none;" clip-rule="evenodd" fill-rule="evenodd" stroke-miterlimit="10" viewBox="0 0 500 500" xmlns="http://www.w3.org/2000/svg" xmlns:xlink="http://www.w3.org/1999/xlink"><clipPath id="a"><path clip-rule="evenodd" d="m0 0h22v20h-22z"/></clipPath><g clip-path="url(#a)" transform="matrix(22.7273 0 0 22.7273 -.0003 22.727)"><path d="m9.664 10.078s-.433-1.771-.125-2.36c.261-.499 2.136-.359 1.861-.818-.6-1-2.3-2.6-2.3-3s-.5-3.6-1-3.9-.9 1.4-.5 2.8-1 .1-1.2-.2c-.2-.4-1.8-2.6-2.3-2.2s0 1.1.4 1.6 1.6 2 1.3 2.2c-.2.2-4-3.1-4.5-2.7s-.5 1 .1 1.4 3.9 2.2 3.9 2.6-1 .3-2.3-.1c-1.3-.5-3-.4-3 .1s5.4 2.2 6.1 2.7c.8.4.3 1-.2 1.1-.4.2-1.9 1.3-2.2 2s.3 1.1.7.7c.3-.4 2.4-1.6 3-1.4.6.3 1.064.478 2.264-.522z" fill="#e2ba93" fill-rule="nonzero"/><path d="m17.496 11.473 4.104 2.227-3.1 3.6-3.656-3.405c1.521-.725 2.428-1.49 2.652-2.422z" fill="#e2ba93" fill-rule="nonzero"/><path d="m10.6 19.1c-1.2-.9-2.5-1.8-3.7-2.8.1-.1 2.5-3.3 2.9-4 0-.1-.325-2.698-.4-3.9-.013-1.727 2.1-1.2 2.2-1.2.2 0 .675.217.675.317-.1.2-.675.983-.575.883.3-.4.6-.9.9-1.3.5-.6 1.453-.53 1.753.17 1.045-.694 1.878.262 1.766 1.073.862-.158 1.248.792.881 1.657.237-.18 1.126 1.068.519 1.814-.503.833-2.863 2.417-3.819 2.486-.6.9-3.1 4.8-3.1 4.8z" fill="none" stroke="#e2ba93" stroke-width=".75"/></g></svg>