<svg id="icon" style="touch-action: none;" clip-rule="evenodd" fill-rule="evenodd" stroke-linejoin="round" stroke-miterlimit="2" viewBox="0 0 500 500" xmlns="http://www.w3.org/2000/svg" xmlns:xlink="http://www.w3.org/1999/xlink"><clipPath id="a"><path clip-rule="evenodd" d="m0 0h21v24h-21z"/></clipPath><g clip-path="url(#a)" transform="matrix(20.8333 0 0 20.8333 31.25035 4.8404)"><path d="m14.379 2.089c-.493-.294-.987-.49-1.579-.589-2-.5-4.2-.8-6.3-.8-.2 0-.4-.2-.4-.4.1-.2.3-.3.6-.3 2.2 0 4.3.3 6.4.8.6.2 1.2.4 1.8.7.5.3.8.7 1 1.1.9.4 1.5.9 1.8 1.5.2.5.2 1.2-.1 1.7.4.1.8.3 1.2.5s.8.4 1.2.7c.5.4.7.9.5 1.4-.2.9-1.4 1.2-2.2 1.4l-1.109.215c.329.893.509 1.866.509 2.885v.2h.1c.5.1.7 1.1.5 2.1-.3 1-.9 1.6-1.5 1.5-.2.4-.4.8-.7 1.1-.5 2.8-2.8 5.8-5.6 5.8s-5.1-2.9-5.6-5.8c-.3-.3-.5-.7-.7-1.1-.6.1-1.3-.5-1.6-1.5s-.1-1.9.5-2.1h.2v-.2c0-1.804.563-3.468 1.515-4.79-1.083-.142-2.158-.346-3.215-.61-.6-.1-1.4-.4-1.6-1.1-.1-.4.2-.9.7-1.2.3-.2.8-.3 1.2-.4.9-.2 1.8-.3 2.7-.4-.2-.1-.4-.2-.6-.3-.3-.2-.6-.3-.9-.6s-.4-.8-.1-1.2.8-.5 1.3-.6c3.2-.3 6.4-.2 9.5.3.163 0 .392.066.579.089l.021.011h.1zm-2.079 16.511v-.811l-1-.296v-5.191l1-.306v-.896h-3.7v.896l1 .306v5.191l-1 .296v.811zm4.609-9.259 1.291-.241c1-.2 1.5-.5 1.6-.8.1-.2-.1-.5-.3-.7-.3-.2-.7-.4-1.1-.6s-.9-.4-1.4-.5c-.2.2-.5.5-.8.7-.167.106-.339.201-.516.283.488.548.903 1.173 1.225 1.858-4.416.805-8.138 1.015-12.609.559-.2-.1-.4.1-.4.3-.1.2.1.4.3.4 1.6.1 3.1.2 4.6.2 2.759 0 5.439-.238 8.391-.785-.084-.23-.178-.455-.282-.674zm-8.276-3.976c-.729-.089-1.446-.212-2.133-.365-1.5 0-3 .2-4.5.5-.3.1-.7.2-1 .3-.1.1-.3.3-.2.4 0 .1.2.3 1 .6 1.172.268 2.367.48 3.573.618l-.211.241c-.075.094-.15.188-.225.283l-.122.168c2.6.364 5.242.402 7.785.19 1.018-.17 2.107-.339 3.084-.817-.193-.217-.398-.423-.613-.615.299-.106.579-.229.829-.368.1-.1.3-.2.4-.3-1-.3-2.1-.6-3.2-.8-.151 0-.302.025-.453.05.897.302 1.718.788 2.424 1.418-.777.283-1.676.46-2.471.532-2.394.333-4.833.311-7.227.018.884-.971 2.002-1.692 3.26-2.053zm4.014.085c-.677-.227-1.398-.35-2.147-.35-.647 0-1.273.092-1.867.265 1.18.144 2.392.197 3.567.135.149 0 .298-.025.447-.05zm1.953-.55c.7.2 1.5.4 2.2.6.2-.4.3-.8.1-1.2s-.5-.7-1-.9c-.1.6-.6 1.2-1.3 1.5zm-6.8-.7c1.8 0 3.5.2 5.2.5.4-.1.8-.2 1.2-.4.6-.3.9-.7.9-1.1-.4-.1-.9-.3-1.5-.4-3.1-.5-6.2-.6-9.3-.3-.4 0-.7.1-.8.2 0 .1 0 .2.1.3.1.2.4.3.6.4.8.3 1.6.6 2.4.8z" fill="#bcc2d3"/></g></svg>