<?xml version="1.0" encoding="UTF-8" standalone="no"?>
<!DOCTYPE svg PUBLIC "-//W3C//DTD SVG 1.1//EN" "http://www.w3.org/Graphics/SVG/1.1/DTD/svg11.dtd">
<svg width="100%" height="100%" viewBox="0 0 500 500" version="1.1" xmlns="http://www.w3.org/2000/svg" xmlns:xlink="http://www.w3.org/1999/xlink" xml:space="preserve" xmlns:serif="http://www.serif.com/" style="fill-rule:evenodd;clip-rule:evenodd;stroke-linejoin:round;stroke-miterlimit:2;">
    <g transform="matrix(20.8333,0,0,20.8333,250,254.84)">
        <g transform="matrix(1,0,0,1,-10.5,-12)">
            <clipPath id="_clip1">
                <rect x="0" y="0" width="21" height="24"/>
            </clipPath>
            <g clip-path="url(#_clip1)">
                <path d="M14.379,2.089C13.886,1.795 13.392,1.599 12.8,1.5C10.8,1 8.6,0.7 6.5,0.7C6.3,0.7 6.1,0.5 6.1,0.3C6.2,0.1 6.4,0 6.7,0C8.9,0 11,0.3 13.1,0.8C13.7,1 14.3,1.2 14.9,1.5C15.4,1.8 15.7,2.2 15.9,2.6C16.8,3 17.4,3.5 17.7,4.1C17.9,4.6 17.9,5.3 17.6,5.8C18,5.9 18.4,6.1 18.8,6.3C19.2,6.5 19.6,6.7 20,7C20.5,7.4 20.7,7.9 20.5,8.4C20.3,9.3 19.1,9.6 18.3,9.8L17.191,10.015C17.52,10.908 17.7,11.881 17.7,12.9L17.7,13.1L17.8,13.1C18.3,13.2 18.5,14.2 18.3,15.2C18,16.2 17.4,16.8 16.8,16.7C16.6,17.1 16.4,17.5 16.1,17.8C15.6,20.6 13.3,23.6 10.5,23.6C7.7,23.6 5.4,20.7 4.9,17.8C4.6,17.5 4.4,17.1 4.2,16.7C3.6,16.8 2.9,16.2 2.6,15.2C2.3,14.2 2.5,13.3 3.1,13.1L3.3,13.1L3.3,12.9C3.3,11.096 3.863,9.432 4.815,8.11C3.732,7.968 2.657,7.764 1.6,7.5C1,7.4 0.2,7.1 0,6.4C-0.1,6 0.2,5.5 0.7,5.2C1,5 1.5,4.9 1.9,4.8C2.8,4.6 3.7,4.5 4.6,4.4C4.4,4.3 4.2,4.2 4,4.1C3.7,3.9 3.4,3.8 3.1,3.5C2.8,3.2 2.7,2.7 3,2.3C3.3,1.9 3.8,1.8 4.3,1.7C7.5,1.4 10.7,1.5 13.8,2C13.963,2 14.192,2.066 14.379,2.089L14.4,2.1L14.5,2.1L14.379,2.089ZM12.3,18.6L12.3,17.789L11.3,17.493L11.3,12.302L12.3,11.996L12.3,11.1L8.6,11.1L8.6,11.996L9.6,12.302L9.6,17.493L8.6,17.789L8.6,18.6L12.3,18.6ZM16.909,9.341L18.2,9.1C19.2,8.9 19.7,8.6 19.8,8.3C19.9,8.1 19.7,7.8 19.5,7.6C19.2,7.4 18.8,7.2 18.4,7C18,6.8 17.5,6.6 17,6.5C16.8,6.7 16.5,7 16.2,7.2C16.033,7.306 15.861,7.401 15.684,7.483C16.172,8.031 16.587,8.656 16.909,9.341C12.493,10.146 8.771,10.356 4.3,9.9C4.1,9.8 3.9,10 3.9,10.2C3.8,10.4 4,10.6 4.2,10.6C5.8,10.7 7.3,10.8 8.8,10.8C11.559,10.8 14.239,10.562 17.191,10.015C17.107,9.785 17.013,9.56 16.909,9.341ZM8.633,5.365C7.904,5.276 7.187,5.153 6.5,5C5,5 3.5,5.2 2,5.5C1.7,5.6 1.3,5.7 1,5.8C0.9,5.9 0.7,6.1 0.8,6.2C0.8,6.3 1,6.5 1.8,6.8C2.972,7.068 4.167,7.28 5.373,7.418L5.162,7.659C5.087,7.753 5.012,7.847 4.937,7.942L4.815,8.11C7.415,8.474 10.057,8.512 12.6,8.3C13.618,8.13 14.707,7.961 15.684,7.483C15.491,7.266 15.286,7.06 15.071,6.868C15.37,6.762 15.65,6.639 15.9,6.5C16,6.4 16.2,6.3 16.3,6.2C15.3,5.9 14.2,5.6 13.1,5.4C12.949,5.4 12.798,5.425 12.647,5.45C13.544,5.752 14.365,6.238 15.071,6.868C14.294,7.151 13.395,7.328 12.6,7.4C10.206,7.733 7.767,7.711 5.373,7.418C6.257,6.447 7.375,5.726 8.633,5.365ZM12.647,5.45C11.97,5.223 11.249,5.1 10.5,5.1C9.853,5.1 9.227,5.192 8.633,5.365C9.813,5.509 11.025,5.562 12.2,5.5C12.349,5.5 12.498,5.475 12.647,5.45ZM14.6,4.9C15.3,5.1 16.1,5.3 16.8,5.5C17,5.1 17.1,4.7 16.9,4.3C16.7,3.9 16.4,3.6 15.9,3.4C15.8,4 15.3,4.6 14.6,4.9ZM7.8,4.2C9.6,4.2 11.3,4.4 13,4.7C13.4,4.6 13.8,4.5 14.2,4.3C14.8,4 15.1,3.6 15.1,3.2C14.7,3.1 14.2,2.9 13.6,2.8C10.5,2.3 7.4,2.2 4.3,2.5C3.9,2.5 3.6,2.6 3.5,2.7C3.5,2.8 3.5,2.9 3.6,3C3.7,3.2 4,3.3 4.2,3.4C5,3.7 5.8,4 6.6,4.2L7.8,4.2Z" style="fill:rgb(188,194,211);"/>
            </g>
        </g>
    </g>
</svg>
