<?xml version="1.0" encoding="UTF-8" standalone="no"?>
<!DOCTYPE svg PUBLIC "-//W3C//DTD SVG 1.1//EN" "http://www.w3.org/Graphics/SVG/1.1/DTD/svg11.dtd">
<svg width="100%" height="100%" viewBox="0 0 500 500" version="1.1" xmlns="http://www.w3.org/2000/svg" xmlns:xlink="http://www.w3.org/1999/xlink" xml:space="preserve" xmlns:serif="http://www.serif.com/" style="fill-rule:evenodd;clip-rule:evenodd;stroke-linejoin:round;stroke-miterlimit:2;">
    <g transform="matrix(25,0,0,25,250,250)">
        <g transform="matrix(1,0,0,1,-10,-10)">
            <clipPath id="_clip1">
                <rect x="0" y="0" width="20" height="20"/>
            </clipPath>
            <g clip-path="url(#_clip1)">
                <path d="M3.067,20L1.067,20L1.067,19L3.067,19L3.067,20ZM6.067,20L4.067,20L4.067,19L6.067,19L6.067,20ZM9.067,20L7.067,20L7.067,19L9.067,19L9.067,20ZM12.067,20L10.067,20L10.067,19L12.067,19L12.067,20ZM15.067,20L13.067,20L13.067,19L15.067,19L15.067,20ZM16.067,20L16.067,19L18.067,19L18.067,20L16.067,20ZM19.66,18.049L19.028,19.946L18.079,19.63C18.156,19.4 18.462,18.483 18.712,17.732L19.66,18.049ZM2.708,16.326L2.95,17.296L1.3,17.708L1.66,18.789L0.712,19.105L0.079,17.208L0.806,16.966L0.767,16.811L2.708,16.326ZM20.01,17L19.977,17.1L19.136,16.82L19.717,17.879L19.693,17.951L17.929,17.511L18.172,16.54L20.01,17ZM15.261,15.813L17.202,16.298L16.959,17.268C16.309,17.105 15.629,16.935 15.019,16.783L15.261,15.813ZM5.618,15.598L5.861,16.568C5.311,16.705 4.624,16.877 3.92,17.053L3.678,16.083L5.618,15.598ZM13.017,14.429C13.04,14.774 13.122,15.064 13.229,15.305L14.291,15.57L14.049,16.54L12.515,16.157L12.317,15.713C12.167,15.379 12.052,14.976 12.019,14.497L13.017,14.429ZM6.985,13.544L7.982,13.468C8,13.699 8.01,13.951 8.01,14.226C8.01,14.826 7.88,15.318 7.703,15.713L7.505,16.157L6.831,16.326L6.588,15.355L6.791,15.305C6.919,15.018 7.01,14.661 7.01,14.226C7.01,13.979 7.001,13.752 6.985,13.544ZM14.032,11.696C13.76,12.311 13.431,12.908 13.045,13.431L12.24,12.837C12.584,12.371 12.876,11.839 13.118,11.292L14.032,11.696ZM5.643,10.88L6.584,10.544C6.784,11.105 7.036,11.671 7.339,12.193L6.475,12.696C6.141,12.121 5.863,11.498 5.643,10.88ZM15.256,9.016C15.093,9.218 14.919,9.405 14.75,9.56C14.658,9.948 14.541,10.355 14.398,10.766L13.453,10.438C13.584,10.06 13.692,9.686 13.777,9.329L13.848,9.032L14.072,8.825C14.209,8.699 14.348,8.548 14.479,8.387L15.256,9.016ZM4.26,8.285L5.137,7.805C5.332,8.162 5.638,8.542 5.927,8.811L6.149,9.018L6.308,9.666L5.344,9.926C5.308,9.797 5.276,9.669 5.246,9.543C4.885,9.207 4.504,8.731 4.26,8.285ZM15.622,6.31C15.86,6.584 16.014,7.015 16.014,7.5C16.014,7.693 15.935,7.932 15.807,8.184L14.915,7.734C14.96,7.644 15.014,7.568 15.014,7.5C15.014,7.285 14.972,7.087 14.867,6.965L15.622,6.31ZM5.326,4.023L6.3,4.246C6.172,4.809 6.095,5.422 6.051,6.07L5.053,6.002L4.97,6.999C4.98,7 4.99,7 5,7C5.053,7 5.153,6.958 5.153,6.958C5.153,6.958 5.017,7.225 5.003,7.408L4.006,7.335C4.061,6.585 4.485,6 5,6C5.018,6 5.036,6.001 5.053,6.002C5.101,5.299 5.186,4.634 5.326,4.023ZM14.621,3.802C14.776,4.408 14.873,5.071 14.929,5.776L13.933,5.856C13.881,5.211 13.795,4.604 13.653,4.05L14.621,3.802ZM6.666,1.387L7.36,2.107C6.996,2.457 6.738,2.903 6.545,3.416L5.609,3.065C5.857,2.405 6.199,1.837 6.666,1.387ZM13.165,1.234C13.666,1.66 14.036,2.209 14.307,2.854L13.385,3.241C13.178,2.747 12.902,2.322 12.518,1.996L13.165,1.234ZM9.387,0.275L9.469,1.271C8.866,1.321 8.362,1.457 7.946,1.681L7.472,0.8C7.997,0.518 8.628,0.337 9.387,0.275ZM10.386,0.26C11.149,0.298 11.789,0.45 12.325,0.699L11.903,1.605C11.471,1.404 10.952,1.289 10.337,1.258L10.386,0.26Z" style="fill:white;"/>
            </g>
        </g>
    </g>
</svg>
