<svg id="icon" style="touch-action: none;" clip-rule="evenodd" fill-rule="evenodd" stroke-linejoin="round" stroke-miterlimit="2" viewBox="0 0 500 500" xmlns="http://www.w3.org/2000/svg" xmlns:xlink="http://www.w3.org/1999/xlink"><clipPath id="a"><path clip-rule="evenodd" d="m0 0h20v20h-20z"/></clipPath><g clip-path="url(#a)" transform="scale(25)"><path d="m3.067 20h-2v-1h2zm3 0h-2v-1h2zm3 0h-2v-1h2zm3 0h-2v-1h2zm3 0h-2v-1h2zm1 0v-1h2v1zm3.593-1.951-.632 1.897-.949-.316c.077-.23.383-1.147.633-1.898zm-16.952-1.723.242.97-1.65.412.36 1.081-.948.316-.633-1.897.727-.242-.039-.155zm17.302.674-.033.1-.841-.28.581 1.059-.024.072-1.764-.44.243-.971zm-4.749-1.187 1.941.485-.243.97c-.65-.163-1.33-.333-1.94-.485zm-9.643-.215.243.97c-.55.137-1.237.309-1.941.485l-.242-.97zm7.399-1.169c.023.345.105.635.212.876l1.062.265-.242.97-1.534-.383-.198-.444c-.15-.334-.265-.737-.298-1.216zm-6.032-.885.997-.076c.018.231.028.483.028.758 0 .6-.13 1.092-.307 1.487l-.198.444-.674.169-.243-.971.203-.05c.128-.287.219-.644.219-1.079 0-.247-.009-.474-.025-.682zm7.047-1.848c-.272.615-.601 1.212-.987 1.735l-.805-.594c.344-.466.636-.998.878-1.545zm-8.389-.816.941-.336c.2.561.452 1.127.755 1.649l-.864.503c-.334-.575-.612-1.198-.832-1.816zm9.613-1.864c-.163.202-.337.389-.506.544-.092.388-.209.795-.352 1.206l-.945-.328c.131-.378.239-.752.324-1.109l.071-.297.224-.207c.137-.126.276-.277.407-.438zm-10.996-.731.877-.48c.195.357.501.737.79 1.006l.222.207.159.648-.964.26c-.036-.129-.068-.257-.098-.383-.361-.336-.742-.812-.986-1.258zm11.362-1.975c.238.274.392.705.392 1.19 0 .193-.079.432-.207.684l-.892-.45c.045-.09.099-.166.099-.234 0-.215-.042-.413-.147-.535zm-10.296-2.287.974.223c-.128.563-.205 1.176-.249 1.824l-.998-.068-.083.997c.01.001.02.001.03.001.053 0 .153-.042.153-.042s-.136.267-.15.45l-.997-.073c.055-.75.479-1.335.994-1.335.018 0 .036.001.053.002.048-.703.133-1.368.273-1.979zm9.295-.221c.155.606.252 1.269.308 1.974l-.996.08c-.052-.645-.138-1.252-.28-1.806zm-7.955-2.415.694.72c-.364.35-.622.796-.815 1.309l-.936-.351c.248-.66.59-1.228 1.057-1.678zm6.499-.153c.501.426.871.975 1.142 1.62l-.922.387c-.207-.494-.483-.919-.867-1.245zm-3.778-.959.082.996c-.603.05-1.107.186-1.523.41l-.474-.881c.525-.282 1.156-.463 1.915-.525zm.999-.015c.763.038 1.403.19 1.939.439l-.422.906c-.432-.201-.951-.316-1.566-.347z" fill="#fff"/></g></svg>