<svg id="icon" style="touch-action: none;" clip-rule="evenodd" fill-rule="evenodd" stroke-linejoin="round" stroke-miterlimit="2" viewBox="0 0 500 500" xmlns="http://www.w3.org/2000/svg" xmlns:xlink="http://www.w3.org/1999/xlink"><clipPath id="a"><path clip-rule="evenodd" d="m0 0h22v24h-22z"/></clipPath><g clip-path="url(#a)" transform="matrix(20.8333 0 0 20.8333 28.8337 10.0004)"><path d="m7.385 5.215-2.815-2.815 2.43-2.43 3.2 3.2 3.2-3.2 2.43 2.43-2.815 2.815c1.012.465 1.904 1.173 2.613 2.057l1.182-1.092 1.399 1.399 1.5-1.4 1.731 1.73-1.5 1.4 1.49 1.491-1.721 1.721-1.5-1.4-.822.823c.009.151.013.303.013.456v.2h.1c.6.2.8 1.2.5 2.1-.3 1-.9 1.6-1.5 1.5-.2.4-.4.8-.7 1.1-.5 2.8-2.8 5.8-5.6 5.8s-5.1-2.9-5.6-5.8c-.3-.3-.5-.7-.7-1.1-.6.1-1.3-.5-1.6-1.5s-.1-1.9.5-2.1h.2v-.2c0-.39.026-.773.078-1.148l-1.268 1.268-1.851-1.709 1.501-1.502-1.511-1.411 1.861-1.718 1.399 1.399 1.5-1.4.547.547c.616-.632 1.335-1.146 2.129-1.511zm2.115 9.685v2.7h-1.5v-7.3h2.5c.7 0 1.3.2 1.7.6s.6 1 .6 1.7-.2 1.3-.6 1.7-1 .6-1.7.6zm0-1.1h1.1c.3 0 .9-.232.9-1.2 0-1.086-.6-1.2-.9-1.2h-1.1zm-7.71-6.58-.739.682 1.489 1.389-1.499 1.498.749.691 1.401-1.401 1.5 1.4.679-.679-1.51-1.509 1.5-1.4-.669-.67-1.5 1.4zm15 0-.739.682 1.489 1.389-1.499 1.498.749.691 1.401-1.401 1.5 1.4.679-.679-1.51-1.509 1.5-1.4-.669-.67-1.5 1.4zm-6.59-2.99-3.2-3.2-1.37 1.37 3.2 3.2-3.2 3.2 1.37 1.37 3.2-3.2 3.2 3.2 1.37-1.37-3.2-3.2 3.2-3.2-1.37-1.37z" fill="#fff4af"/></g></svg>