<?xml version="1.0" encoding="UTF-8" standalone="no"?>
<!DOCTYPE svg PUBLIC "-//W3C//DTD SVG 1.1//EN" "http://www.w3.org/Graphics/SVG/1.1/DTD/svg11.dtd">
<svg width="100%" height="100%" viewBox="0 0 500 500" version="1.1" xmlns="http://www.w3.org/2000/svg" xmlns:xlink="http://www.w3.org/1999/xlink" xml:space="preserve" xmlns:serif="http://www.serif.com/" style="fill-rule:evenodd;clip-rule:evenodd;stroke-linejoin:round;stroke-miterlimit:2;">
    <g transform="matrix(20.8333,0,0,20.8333,258,260)">
        <g transform="matrix(1,0,0,1,-11,-12)">
            <clipPath id="_clip1">
                <rect x="0" y="0" width="22" height="24"/>
            </clipPath>
            <g clip-path="url(#_clip1)">
                <path d="M7.385,5.215L4.57,2.4L7,-0.03L10.2,3.17L13.4,-0.03L15.83,2.4L13.015,5.215C14.027,5.68 14.919,6.388 15.628,7.272L16.81,6.18L18.209,7.579L19.709,6.179L21.44,7.909L19.94,9.309L21.43,10.8L19.709,12.521L18.209,11.121L17.387,11.944C17.396,12.095 17.4,12.247 17.4,12.4L17.4,12.6L17.5,12.6C18.1,12.8 18.3,13.8 18,14.7C17.7,15.7 17.1,16.3 16.5,16.2C16.3,16.6 16.1,17 15.8,17.3C15.3,20.1 13,23.1 10.2,23.1C7.4,23.1 5.1,20.2 4.6,17.3C4.3,17 4.1,16.6 3.9,16.2C3.3,16.3 2.6,15.7 2.3,14.7C2,13.7 2.2,12.8 2.8,12.6L3,12.6L3,12.4C3,12.01 3.026,11.627 3.078,11.252L1.81,12.52L-0.041,10.811L1.46,9.309L-0.051,7.898L1.81,6.18L3.209,7.579L4.709,6.179L5.256,6.726C5.872,6.094 6.591,5.58 7.385,5.215ZM9.5,14.9L9.5,17.6L8,17.6L8,10.3L10.5,10.3C11.2,10.3 11.8,10.5 12.2,10.9C12.6,11.3 12.8,11.9 12.8,12.6C12.8,13.3 12.6,13.9 12.2,14.3C11.8,14.7 11.2,14.9 10.5,14.9L9.5,14.9ZM9.5,13.8L10.6,13.8C10.9,13.8 11.5,13.568 11.5,12.6C11.5,11.514 10.9,11.4 10.6,11.4L9.5,11.4L9.5,13.8ZM1.79,7.22L1.051,7.902L2.54,9.291L1.041,10.789L1.79,11.48L3.191,10.079L4.691,11.479L5.37,10.8L3.86,9.291L5.36,7.891L4.691,7.221L3.191,8.621L1.79,7.22ZM16.79,7.22L16.051,7.902L17.54,9.291L16.041,10.789L16.79,11.48L18.191,10.079L19.691,11.479L20.37,10.8L18.86,9.291L20.36,7.891L19.691,7.221L18.191,8.621L16.79,7.22ZM10.2,4.23L7,1.03L5.63,2.4L8.83,5.6L5.63,8.8L7,10.17L10.2,6.97L13.4,10.17L14.77,8.8L11.57,5.6L14.77,2.4L13.4,1.03L10.2,4.23Z" style="fill:rgb(255,244,175);"/>
            </g>
        </g>
    </g>
</svg>
