<svg id="icon" style="touch-action: none;" clip-rule="evenodd" fill-rule="evenodd" stroke-linejoin="round" stroke-miterlimit="2" viewBox="0 0 500 500" xmlns="http://www.w3.org/2000/svg"><path d="m5.009 7.405-.109-1.505 1.4-.7 1.3 1.9c.1.1.3.2.4.2h.2l3.9-1.6 3 1c.1.4.1.8.1 1.2v.2h.1c.4.1.6.6.6 1.1l-5.6 1.8c-.1 0-.2.1-.2.2v.3l1.6 3.1-3.5 1.9c-.2.1-.3.3-.3.4.1.5.2 1.1.3 1.6h-.3c-2.2 0-4.1-1.9-5-4 0 0 2.4-3 2.4-3.1l-.11-1.506c.672-.031 1.21-.205 1.21-.994 0-.763-.637-1.436-1.391-1.495zm5.891 4.195 4.9-1.6v.1c-.3 1-1 1.6-1.5 1.5-.2.4-.4.8-.7 1.1-.4 2.5-2.2 5.1-4.6 5.7-.1-.4-.1-.8-.2-1.4l3.6-1.9c.2-.1.2-.3.2-.5zm-.6 2.9c0 1.3-1 0-2.3 0s-2.3 1.3-2.3 0 1-2.3 2.3-2.3 2.3 1 2.3 2.3zm-5.88-4.62.08 1.52-1.9 2.4c-.1-.3-.2-.6-.2-1-.3-.4-.5-.7-.7-1.1-.6.2-1.3-.5-1.5-1.5-.3-1-.1-1.9.5-2.1h.2v-.2c0-3.5 2.1-6.4 4.9-7.4l1.8 3.4-3.2 1.5c-.2.1-.2.2-.2.3l.096 1.822c-.518.218-.896.717-.896 1.378 0 .713.439.924 1.02.98zm7.98-.98c0 .9-.7 1-1.5 1s-1.5-.1-1.5-1 .7-1.5 1.5-1.5 1.5.7 1.5 1.5zm-4.3-2.5c-.367-.5-.733-1-1.1-1.5l1.1-.6c.1-.1.2-.1.2-.2v-.3l-1.9-3.6c.5-.1 1-.2 1.6-.2 3.3 0 6.1 2.4 6.9 5.8l-2.8-.9h-.3z" fill="#b3b3b3" transform="matrix(26.3158 0 0 26.3158 39.4736 7.8519)"/></svg>