<?xml version="1.0" encoding="UTF-8" standalone="no"?>
<!DOCTYPE svg PUBLIC "-//W3C//DTD SVG 1.1//EN" "http://www.w3.org/Graphics/SVG/1.1/DTD/svg11.dtd">
<svg width="100%" height="100%" viewBox="0 0 500 500" version="1.1" xmlns="http://www.w3.org/2000/svg" xmlns:xlink="http://www.w3.org/1999/xlink" xml:space="preserve" xmlns:serif="http://www.serif.com/" style="fill-rule:evenodd;clip-rule:evenodd;stroke-linejoin:round;stroke-miterlimit:2;">
    <g transform="matrix(0.97721,0,0,0.97721,250,250)">
        <g transform="matrix(1,0,0,1,-256,-256)">
            <g>
                <path d="M425.344,22.22C416.317,22.305 406.644,28.046 401,41.625C389.857,68.428 369.07,100.781 342.437,135.095C353.007,143.789 362.287,154.015 369.937,165.405C405.037,138.835 438.819,118.595 468.062,108.655C512.662,93.495 480.082,38.935 432.719,73.312C459.629,45.47 443.826,22.042 425.343,22.219L425.344,22.22ZM84.124,22.25C65.624,22.628 46.52,46.212 67.781,72.125C31.523,38.635 -0.802,85.48 37.095,102.813C65.18,115.657 99.635,138.473 136.157,167.156C144.282,154.656 154.364,143.546 165.937,134.219C139.155,98.476 117.497,64.384 104.157,35.749C99.642,26.059 91.937,22.089 84.127,22.249L84.124,22.25ZM253.624,121.938C186.52,121.938 132.314,176.148 132.314,243.25C132.314,287.926 156.354,326.863 192.219,347.906L192.219,404.312L210.937,404.312L210.937,356.844C216.14,358.794 221.513,360.396 227.03,361.624L227.03,404.312L245.72,404.312L245.72,364.282C248.334,364.449 250.967,364.532 253.625,364.532C256.262,364.532 258.875,364.446 261.469,364.282L261.469,404.312L280.155,404.312L280.155,361.625C285.675,360.399 291.045,358.791 296.249,356.845L296.249,404.312L314.937,404.312L314.937,347.97C350.857,326.94 374.937,287.967 374.937,243.25C374.937,176.145 320.729,121.937 253.624,121.937L253.624,121.938ZM186.75,210.156C206.63,210.156 222.75,226.276 222.75,246.156C222.75,266.036 206.63,282.156 186.75,282.156C166.87,282.156 150.75,266.036 150.75,246.156C150.75,226.276 166.87,210.156 186.75,210.156ZM320.313,210.156C340.191,210.156 356.313,226.276 356.313,246.156C356.313,266.036 340.191,282.156 320.313,282.156C300.433,282.156 284.313,266.036 284.313,246.156C284.313,226.276 300.433,210.156 320.313,210.156ZM253.593,262.5L283.531,310.688L223.657,310.688L253.595,262.5L253.593,262.5ZM146.313,333.063C106.05,365.535 67.767,391.473 37.093,405.5C-0.803,422.834 31.523,469.646 67.781,436.156C37.544,473.01 88.948,505.206 104.157,472.562C119.229,440.21 144.884,400.862 176.595,360.062C165.243,352.556 155.031,343.459 146.315,333.062L146.313,333.063ZM359.469,334.781C351.314,344.196 341.927,352.501 331.561,359.471C363.407,398.861 388.381,436.333 400.999,466.688C418.202,508.071 472.773,476.41 432.719,434.97C480.082,469.346 512.659,414.785 468.061,399.625C435.915,388.699 398.303,365.325 359.468,334.781L359.469,334.781Z" style="fill:rgb(161,225,146);fill-rule:nonzero;"/>
            </g>
        </g>
    </g>
</svg>
