<?xml version="1.0" encoding="UTF-8" standalone="no"?>
<!DOCTYPE svg PUBLIC "-//W3C//DTD SVG 1.1//EN" "http://www.w3.org/Graphics/SVG/1.1/DTD/svg11.dtd">
<svg width="100%" height="100%" viewBox="0 0 500 500" version="1.1" xmlns="http://www.w3.org/2000/svg" xmlns:xlink="http://www.w3.org/1999/xlink" xml:space="preserve" xmlns:serif="http://www.serif.com/" style="fill-rule:evenodd;clip-rule:evenodd;stroke-linejoin:round;stroke-miterlimit:2;">
    <g transform="matrix(26.3158,0,0,26.3158,250,250)">
        <g transform="matrix(1,0,0,1,-9.5,-9)">
            <clipPath id="_clip1">
                <rect x="0" y="0" width="19" height="18"/>
            </clipPath>
            <g clip-path="url(#_clip1)">
                <g id="Layer_2">
                    <g id="Layer_1-2">
                        <path d="M13.72,15.63C12.67,16.49 11.72,17.14 9.95,15.63C8.18,14.12 6.95,11.92 5.43,11.86C3.91,11.8 0.22,12.61 0.03,11.86C-0.16,11.11 0.6,10.35 1.54,10.35C2.48,10.35 4.61,11 6.18,9.6C7.75,8.2 8.94,7.53 9.18,5.83C9.42,4.13 8.57,0.94 9.19,0.31C9.81,-0.32 10.51,0.06 10.7,1.06C10.89,2.06 11.7,6.33 10.7,8.06C10.7,8.06 10.51,11.2 11.45,11.83C11.45,11.83 12.89,9.44 14.45,8.83C16.01,8.22 19.18,8 19,8.84C18.82,9.68 18.87,10.28 17.49,10.35C16.11,10.42 14.41,10.73 12.97,13.35C13.894,12.86 14.924,12.603 15.97,12.6C17.428,12.999 18.571,14.142 18.97,15.6C19.03,16.54 18.34,17.48 17.46,17.11C16.58,16.74 16.79,13.11 13.72,15.63Z" style="fill:rgb(223,223,223);fill-rule:nonzero;"/>
                        <g transform="matrix(0.932954,-0.359997,0.359997,0.932954,-2.03,2.51)">
                            <ellipse cx="5.72" cy="6.7" rx="1.88" ry="2.49" style="fill:rgb(223,223,223);"/>
                        </g>
                    </g>
                </g>
            </g>
        </g>
    </g>
</svg>
