<svg id="icon" style="touch-action: none;" clip-rule="evenodd" fill-rule="evenodd" stroke-linejoin="round" stroke-miterlimit="2" viewBox="0 0 500 500" xmlns="http://www.w3.org/2000/svg" xmlns:xlink="http://www.w3.org/1999/xlink"><clipPath id="a"><path clip-rule="evenodd" d="m0 0h19v18h-19z"/></clipPath><g clip-path="url(#a)" fill="#dfdfdf" transform="matrix(26.3158 0 0 26.3158 -.0001 13.1578)"><path d="m13.72 15.63c-1.05.86-2 1.51-3.77 0s-3-3.71-4.52-3.77-5.21.75-5.4 0 .57-1.51 1.51-1.51 3.07.65 4.64-.75 2.76-2.07 3-3.77-.61-4.89.01-5.52 1.32-.25 1.51.75 1 5.27 0 7c0 0-.19 3.14.75 3.77 0 0 1.44-2.39 3-3s4.73-.83 4.55.01-.13 1.44-1.51 1.51-3.08.38-4.52 3c.924-.49 1.954-.747 3-.75 1.458.399 2.601 1.542 3 3 .06.94-.63 1.88-1.51 1.51s-.67-4-3.74-1.48z" fill-rule="nonzero"/><ellipse cx="5.72" cy="6.7" rx="1.88" ry="2.49" transform="matrix(.932954 -.359997 .359997 .932954 -2.03 2.51)"/></g></svg>