<svg id="icon" style="touch-action: none;" clip-rule="evenodd" fill-rule="evenodd" stroke-linejoin="round" stroke-miterlimit="2" viewBox="0 0 500 500" xmlns="http://www.w3.org/2000/svg" xmlns:xlink="http://www.w3.org/1999/xlink"><clipPath id="a"><path clip-rule="evenodd" d="m0 0h19v22h-19z"/></clipPath><g clip-path="url(#a)" fill="#edbfd1" transform="matrix(22.7273 0 0 22.7273 34.09065 -.0003)"><text font-family="'RobotoCondensed-Bold', 'Roboto Condensed'" font-size="8" font-stretch="condensed" font-weight="700" transform="translate(7 6.84)">R</text><g fill-rule="nonzero"><path d="m18.75 10.61c-1.5 1.41-2.84 3.08-4.56 4.13-1.05.64-2.68.34-4 .46-.674-3.108.805-6.31 3.61-7.81.32-.15 1-.18 1.1 0 .253.394.33.877.21 1.33-.465.774-1.005 1.5-1.61 2.17 2.2-.87 2.5-1.69 3-3.76.46-1.82 0-4.66.71-4.95.83 0 1.69-.33 1.57 1.26-.19 2.74-.03 4.41-.03 7.17z"/><path d="m.07 10.61c1.5 1.41 2.84 3.08 4.56 4.13 1.05.64 2.68.34 4 .46.671-3.113-.818-6.316-3.63-7.81-.32-.15-1-.18-1.1 0-.21.35.94 1.41 1.1 1.77.28.62 0 1.12.32 1.73-3-1.23-2.5-1.69-3-3.76-.46-1.82 0-4.66-.71-4.95-.86.02-1.72-.34-1.61 1.25.23 2.75.07 4.42.07 7.18z"/><path d="m2.51 21.16c-.71-1.14-.56-2 .93-2 3.733-.047 7.463-.047 11.19 0 1.49 0 1.64.83.93 2z"/><path d="m9.22 18.12c-1.92 0-3.85.06-5.76 0-.46 0-.89-.54-1.34-.82.45-.37.89-1 1.34-1.06 3.76-.08 7.52-.07 11.28 0 .41 0 .81.61 1.21.94-.41.32-.8.91-1.22.93-1.83.07-3.67.01-5.51.01z"/></g></g></svg>
