<svg id="icon" style="touch-action: none;" clip-rule="evenodd" fill-rule="evenodd" stroke-linejoin="round" stroke-miterlimit="2" viewBox="0 0 500 500" xmlns="http://www.w3.org/2000/svg"><path d="m6.044 5.539-1.086-.789c-.35-.254-.497-.706-.363-1.118s.518-.691.951-.691h2.179l.674-2.073c.134-.412.518-.691.951-.691s.817.279.951.691l.674 2.073h2.179c.433 0 .817.279.951.691s-.013.864-.363 1.118l-1.129.821.319.19c.115-.05.242-.075.373-.075h.836l.258-.795c.134-.412.518-.691.951-.691s.817.279.951.691l.258.795h.836c.433 0 .817.279.951.691s-.013.863-.363 1.118l-.676.491.258.794c.134.412-.013.864-.363 1.118-.326.237-.758.254-1.097.049.257.8.395 1.659.395 2.553v.2h.1c.6.2.8 1.1.5 2.1s-.9 1.6-1.5 1.5c-.2.4-.4.8-.7 1.1-.5 2.8-2.8 5.8-5.6 5.8s-5.1-2.9-5.6-5.8c-.3-.3-.5-.7-.7-1.1-.6.1-1.3-.5-1.6-1.5s-.1-1.9.5-2.1h.2v-.2c0-.881.134-1.729.385-2.519-.319.142-.696.106-.987-.105-.35-.255-.497-.706-.363-1.118l.258-.795-.676-.491c-.35-.255-.497-.706-.363-1.118s.518-.691.951-.691h.836l.258-.795c.134-.412.518-.691.951-.691s.817.279.951.691l.258.795h.836c.117 0 .23.02.335.06zm4.256 10.061c0-.3-.071-.505-.2-.7-.17-.188-.4-.3-.8-.5-.7-.3-1.3-.6-1.7-.9-.4-.2-.6-.7-.6-1.3s.7-2 2.4-2c.7 0 1.2.2 1.7.6.4.4.6.9.6 1.6h-1.4c-.018-.39-.065-.643-.2-.8-.2-.2-.4-.3-.7-.3s-.5.1-.7.3-.2.4-.2.6.1.4.3.6.5.3.9.5c.7.2 1.2.5 1.5.9s.5.8.5 1.4-.2 1.1-.6 1.5-1 .5-1.7.5-1.3-.2-1.8-.6-.7-1-.7-1.7h1.4c0 .4.1.8.3 1s.5.3.9.3c.3 0 .8-.24.8-1zm5.05-10.4.483 1.486h1.562l-1.264.918.483 1.485-1.264-.918-1.264.918.483-1.485-1.264-.918h1.562zm-12-.023.483 1.486h1.562l-1.264.918.483 1.486-1.264-.918-1.264.918.483-1.486-1.264-.918h1.562zm6-4 .898 2.764h2.906l-2.351 1.709.898 2.764-2.351-1.709-2.351 1.709.898-2.764-2.351-1.709h2.906z" fill="#b9c3ff" transform="matrix(21.3684 0 0 21.3684 47.0002 .0002)"/></svg>