<?xml version="1.0" encoding="UTF-8" standalone="no"?>
<!DOCTYPE svg PUBLIC "-//W3C//DTD SVG 1.1//EN" "http://www.w3.org/Graphics/SVG/1.1/DTD/svg11.dtd">
<svg width="100%" height="100%" viewBox="0 0 500 500" version="1.1" xmlns="http://www.w3.org/2000/svg" xmlns:xlink="http://www.w3.org/1999/xlink" xml:space="preserve" xmlns:serif="http://www.serif.com/" style="fill-rule:evenodd;clip-rule:evenodd;stroke-linejoin:round;stroke-miterlimit:2;">
    <g transform="matrix(26.3158,0,0,26.3158,39.4736,8.9999)">
        <g>
            <g>
                <path d="M15.3,8.1L15.2,8.1L15.2,7.9C15.2,3.5 11.9,0 8,0C4.1,0 0.8,3.5 0.8,7.8L0.8,8L0.6,8C0,8.2 -0.2,9.1 0.1,10.1C0.4,11.1 1.1,11.7 1.7,11.6C1.9,12 2.1,12.4 2.4,12.7C2.9,15.6 5.2,18.5 8,18.5C10.8,18.5 13.1,15.5 13.6,12.7C13.9,12.4 14.1,12 14.3,11.6C14.9,11.7 15.5,11.1 15.8,10.1C16.1,9.2 15.9,8.2 15.3,8.1ZM10.4,13.9C10.4,15.2 9.4,13.9 8.1,13.9C6.8,13.9 5.8,15.2 5.8,13.9C5.8,12.6 6.8,11.6 8.1,11.6C9.4,11.6 10.4,12.6 10.4,13.9ZM10.962,7.572L9.627,6.236L9.132,6.731L10.467,8.067L9.108,9.426L9.603,9.921L10.962,8.562L12.314,9.913L12.809,9.418L11.457,8.067L12.785,6.739L12.29,6.244L10.962,7.572ZM4.962,7.572L3.627,6.237L3.132,6.731L4.467,8.067L3.108,9.425L3.603,9.92L4.962,8.562L6.314,9.913L6.809,9.418L5.457,8.067L6.785,6.739L6.29,6.244L4.962,7.572Z" style="fill:white;"/>
            </g>
        </g>
    </g>
</svg>
