<?xml version="1.0" encoding="UTF-8" standalone="no"?>
<!DOCTYPE svg PUBLIC "-//W3C//DTD SVG 1.1//EN" "http://www.w3.org/Graphics/SVG/1.1/DTD/svg11.dtd">
<svg width="100%" height="100%" viewBox="0 0 500 500" version="1.1" xmlns="http://www.w3.org/2000/svg" xmlns:xlink="http://www.w3.org/1999/xlink" xml:space="preserve" xmlns:serif="http://www.serif.com/" style="fill-rule:evenodd;clip-rule:evenodd;stroke-linejoin:round;stroke-miterlimit:2;">
    <g transform="matrix(0.97721,0,0,0.97721,250,250)">
        <g transform="matrix(1,0,0,1,-256,-256)">
            <clipPath id="_clip1">
                <rect x="0" y="0" width="512" height="512"/>
            </clipPath>
            <g clip-path="url(#_clip1)">
                <g transform="matrix(1.17972,0,0,1.20104,-67.2442,44.409)">
                    <path d="M57,389.322L491,-36.975C491,-36.975 441.362,44.968 399.572,89.222C395.883,93.129 390.003,136.618 390.478,155.288C391.15,181.726 409.005,225.178 379.704,225.178C350.403,225.178 365.414,178.069 366.286,165.209C367.268,150.734 369.36,139.588 358.883,140.109C347.36,140.683 357.345,171.776 339.349,172.442C324.656,172.985 321.27,251.539 320.939,276.802C320.454,313.846 341.918,372.175 312.826,372.175C283.734,372.175 304.485,322.164 304.377,285.961C304.302,260.885 302.364,214.64 292.106,214.524C281.847,214.408 277.547,252.769 265.526,251.208C262.78,250.852 261.762,260.938 261.98,279.77C262.245,302.642 270.54,328.017 253.551,328.017C236.561,328.017 246.143,308.334 246.465,277.914C246.667,258.753 243.899,257.84 241.379,257.322C234.486,255.906 235.126,285.55 222.329,285.961C211.007,286.324 209.086,281.07 200.254,289.57C194.834,294.785 195.433,334.064 177.367,334.302C165.73,334.455 160.654,317.128 138.375,340.07C112.629,366.582 57,389.322 57,389.322Z"/>
                </g>
                <g transform="matrix(1.17972,0,0,1.20104,-67.2442,36.9889)">
                    <path d="M57,395.5L491,-30.797C491,-30.797 441.362,36.642 399.572,80.895C395.883,84.803 390.003,128.292 390.478,146.962C391.15,173.4 409.005,216.852 379.704,216.852C350.403,216.852 365.414,169.743 366.286,156.883C367.268,142.407 369.36,131.262 358.883,131.783C347.36,132.357 357.345,163.45 339.349,164.116C324.656,164.659 321.27,243.213 320.939,268.476C320.454,305.52 341.918,363.849 312.826,363.849C283.734,363.849 304.485,313.838 304.377,277.635C304.302,252.559 302.364,206.314 292.106,206.198C281.847,206.082 277.547,244.442 265.526,242.882C262.78,242.526 261.762,252.612 261.98,271.444C262.245,294.316 270.54,319.691 253.551,319.691C236.561,319.691 246.143,300.008 246.465,269.588C246.667,250.427 243.899,249.514 241.379,248.996C234.486,247.58 235.126,277.224 222.329,277.635C211.007,277.998 209.086,272.743 200.254,281.243C194.834,286.459 195.433,325.738 177.367,325.976C165.73,326.129 160.654,308.802 138.375,331.744C112.629,358.256 57,395.5 57,395.5Z" style="fill:rgb(255,0,0);"/>
                </g>
            </g>
        </g>
    </g>
</svg>
