<svg id="icon" style="touch-action: none;" clip-rule="evenodd" fill-rule="evenodd" stroke-linejoin="round" stroke-miterlimit="2" viewBox="0 0 500 500" xmlns="http://www.w3.org/2000/svg" xmlns:xlink="http://www.w3.org/1999/xlink"><clipPath id="a"><path clip-rule="evenodd" d="m0 0h512v512h-512z"/></clipPath><g clip-path="url(#a)" transform="matrix(.97721 0 0 .97721 -.16576 -.16576)"><path d="m57 389.322 434-426.297s-49.638 81.943-91.428 126.197c-3.689 3.907-9.569 47.396-9.094 66.066.672 26.438 18.527 69.89-10.774 69.89s-14.29-47.109-13.418-59.969c.982-14.475 3.074-25.621-7.403-25.1-11.523.574-1.538 31.667-19.534 32.333-14.693.543-18.079 79.097-18.41 104.36-.485 37.044 20.979 95.373-8.113 95.373s-8.341-50.011-8.449-86.214c-.075-25.076-2.013-71.321-12.271-71.437-10.259-.116-14.559 38.245-26.58 36.684-2.746-.356-3.764 9.73-3.546 28.562.265 22.872 8.56 48.247-8.429 48.247-16.99 0-7.408-19.683-7.086-50.103.202-19.161-2.566-20.074-5.086-20.592-6.893-1.416-6.253 28.228-19.05 28.639-11.322.363-13.243-4.891-22.075 3.609-5.42 5.215-4.821 44.494-22.887 44.732-11.637.153-16.713-17.174-38.992 5.768-25.746 26.512-81.375 49.252-81.375 49.252z" transform="matrix(1.17972 0 0 1.20104 -67.2442 44.409)"/><path d="m57 395.5 434-426.297s-49.638 67.439-91.428 111.692c-3.689 3.908-9.569 47.397-9.094 66.067.672 26.438 18.527 69.89-10.774 69.89s-14.29-47.109-13.418-59.969c.982-14.476 3.074-25.621-7.403-25.1-11.523.574-1.538 31.667-19.534 32.333-14.693.543-18.079 79.097-18.41 104.36-.485 37.044 20.979 95.373-8.113 95.373s-8.341-50.011-8.449-86.214c-.075-25.076-2.013-71.321-12.271-71.437-10.259-.116-14.559 38.244-26.58 36.684-2.746-.356-3.764 9.73-3.546 28.562.265 22.872 8.56 48.247-8.429 48.247-16.99 0-7.408-19.683-7.086-50.103.202-19.161-2.566-20.074-5.086-20.592-6.893-1.416-6.253 28.228-19.05 28.639-11.322.363-13.243-4.892-22.075 3.608-5.42 5.216-4.821 44.495-22.887 44.733-11.637.153-16.713-17.174-38.992 5.768-25.746 26.512-81.375 63.756-81.375 63.756z" fill="#f00" transform="matrix(1.17972 0 0 1.20104 -67.2442 36.9889)"/></g></svg>